<svg version="1.1" viewBox="0.0 0.0 960.0 960.0" fill="none" stroke="none" stroke-linecap="square" stroke-miterlimit="10" xmlns:xlink="http://www.w3.org/1999/xlink" xmlns="http://www.w3.org/2000/svg"><clipPath id="p.0"><path d="m0 0l960.0 0l0 960.0l-960.0 0l0 -960.0z" clip-rule="nonzero"/></clipPath><g clip-path="url(#p.0)"><path fill="#000000" fill-opacity="0.0" d="m0 0l960.0 0l0 960.0l-960.0 0z" fill-rule="evenodd"/><path fill="#ffffff" d="m0 0l960.0 0l0 960.0l-960.0 0z" fill-rule="evenodd"/><path fill="#000000" fill-opacity="0.0" d="m0 545.6798l960.0 0l0 349.03937l-960.0 0z" fill-rule="evenodd"/><path fill="#444444" d="m230.62543 699.8992q-20.53125 0 -35.1875 -8.296875q-14.640625 -8.3125 -22.484375 -23.515625q-7.84375 -15.21875 -7.84375 -35.9375q0 -15.484375 4.46875 -27.890625q4.484375 -12.421875 12.890625 -21.28125q8.40625 -8.875 20.625 -13.625q12.234375 -4.765625 27.53125 -4.765625q10.265625 0 20.15625 2.609375q9.890625 2.609375 17.359375 7.46875q3.921875 2.421875 5.21875 5.875q1.3125 3.453125 0.5625 6.71875q-0.734375 3.265625 -3.078125 5.515625q-2.328125 2.234375 -5.78125 2.515625q-3.453125 0.28125 -7.5625 -2.34375q-5.78125 -3.734375 -12.5 -5.40625q-6.71875 -1.6875 -13.625 -1.6875q-13.25 0 -22.40625 5.421875q-9.140625 5.40625 -13.8125 15.671875q-4.65625 10.265625 -4.65625 25.203125q0 14.75 4.65625 25.203125q4.671875 10.453125 13.8125 15.875q9.15625 5.40625 22.40625 5.40625q7.09375 0 14.0 -1.765625q6.90625 -1.78125 13.0625 -5.515625q4.109375 -2.4375 7.375 -2.15625q3.265625 0.28125 5.5 2.34375q2.25 2.046875 2.984375 5.125q0.75 3.078125 -0.375 6.34375q-1.109375 3.265625 -4.46875 5.703125q-7.46875 5.40625 -17.828125 8.296875q-10.359375 2.890625 -21.0 2.890625zm98.54913 0q-14.171875 0 -24.625 -5.78125q-10.453125 -5.78125 -16.25 -16.515625q-5.78125 -10.734375 -5.78125 -25.296875q0 -11.015625 3.265625 -19.6875q3.265625 -8.6875 9.421875 -14.9375q6.15625 -6.25 14.75 -9.515625q8.59375 -3.265625 19.21875 -3.265625q14.1875 0 24.640625 5.796875q10.453125 5.78125 16.234375 16.421875q5.796875 10.625 5.796875 25.1875q0 11.015625 -3.265625 19.796875q-3.265625 8.765625 -9.4375 15.015625q-6.15625 6.25 -14.75 9.515625q-8.578125 3.265625 -19.21875 3.265625zm0 -17.71875q6.90625 0 12.125 -3.359375q5.234375 -3.359375 8.125 -9.984375q2.90625 -6.640625 2.90625 -16.53125q0 -14.921875 -6.359375 -22.296875q-6.34375 -7.375 -16.796875 -7.375q-6.90625 0 -12.140625 3.265625q-5.21875 3.265625 -8.109375 9.890625q-2.890625 6.625 -2.890625 16.515625q0 14.75 6.34375 22.3125q6.34375 7.5625 16.796875 7.5625zm97.06088 17.71875q-15.484375 0 -23.328125 -8.859375q-7.84375 -8.859375 -7.84375 -26.03125l0 -88.296875q0 -5.78125 2.984375 -8.765625q3.0 -2.984375 8.59375 -2.984375q5.609375 0 8.6875 2.984375q3.078125 2.984375 3.078125 8.765625l0 87.171875q0 8.578125 3.640625 12.6875q3.640625 4.109375 10.359375 4.109375q1.484375 0 2.796875 -0.09375q1.3125 -0.09375 2.609375 -0.28125q2.609375 -0.375 3.546875 1.40625q0.9375 1.765625 0.9375 7.1875q0 4.65625 -1.875 7.28125q-1.859375 2.609375 -6.15625 3.171875q-1.859375 0.1875 -3.921875 0.359375q-2.046875 0.1875 -4.109375 0.1875zm43.30896 -1.859375q-6.15625 0 -9.421875 -3.265625q-3.265625 -3.265625 -3.265625 -9.421875l0 -106.21875q0 -6.15625 3.265625 -9.421875q3.265625 -3.265625 9.421875 -3.265625l36.21875 0q33.03128 0 51.046906 16.984375q18.015625 16.984375 18.015625 48.71875q0 15.859375 -4.578125 28.09375q-4.578125 12.21875 -13.453125 20.625q-8.859375 8.40625 -21.640625 12.796875q-12.78125 4.375 -29.390656 4.375l-36.21875 0zm11.203125 -19.78125l23.515625 0q11.5781555 0 20.06253 -2.890625q8.5 -2.90625 14.1875 -8.59375q5.703125 -5.6875 8.5 -14.359375q2.796875 -8.6875 2.796875 -20.265625q0 -23.140625 -11.390625 -34.53125q-11.375 -11.390625 -34.15628 -11.390625l-23.515625 0l0 92.03125zm157.71646 21.640625q-14.171875 0 -24.625 -5.78125q-10.453125 -5.78125 -16.25 -16.515625q-5.78125 -10.734375 -5.78125 -25.296875q0 -11.015625 3.265625 -19.6875q3.265625 -8.6875 9.421875 -14.9375q6.15625 -6.25 14.75 -9.515625q8.59375 -3.265625 19.21875 -3.265625q14.1875 0 24.640625 5.796875q10.453125 5.78125 16.234375 16.421875q5.796875 10.625 5.796875 25.1875q0 11.015625 -3.265625 19.796875q-3.265625 8.765625 -9.4375 15.015625q-6.15625 6.25 -14.75 9.515625q-8.578125 3.265625 -19.21875 3.265625zm0 -17.71875q6.90625 0 12.125 -3.359375q5.234375 -3.359375 8.125 -9.984375q2.90625 -6.640625 2.90625 -16.53125q0 -14.921875 -6.359375 -22.296875q-6.34375 -7.375 -16.796875 -7.375q-6.90625 0 -12.140625 3.265625q-5.21875 3.265625 -8.109375 9.890625q-2.890625 6.625 -2.890625 16.515625q0 14.75 6.34375 22.3125q6.34375 7.5625 16.796875 7.5625zm108.45148 51.328125q-10.078125 0 -19.5 -1.875q-9.421875 -1.859375 -17.078125 -5.78125q-3.546875 -1.875 -4.765625 -4.484375q-1.21875 -2.609375 -0.75 -5.3125q0.46875 -2.703125 2.234375 -4.765625q1.78125 -2.046875 4.390625 -2.796875q2.625 -0.75 5.421875 0.75q8.203125 4.109375 15.578125 5.3125q7.375 1.21875 12.609375 1.21875q12.5 0 18.75 -6.078125q6.25 -6.0625 6.25 -18.0l0 -16.796875l1.6875 0q-2.796875 9.515625 -11.671875 15.21875q-8.859375 5.6875 -20.0625 5.6875q-12.3125 0 -21.46875 -5.6875q-9.140625 -5.703125 -14.1875 -15.96875q-5.03125 -10.265625 -5.03125 -23.890625q0 -10.265625 2.890625 -18.5625q2.890625 -8.3125 8.203125 -14.28125q5.328125 -5.984375 12.890625 -9.25q7.5625 -3.265625 16.703125 -3.265625q11.578125 0 20.25 5.703125q8.6875 5.6875 11.296875 15.015625l-1.859375 4.671875l0 -13.265625q0 -5.78125 3.078125 -8.765625q3.078125 -2.984375 8.484375 -2.984375q5.609375 0 8.59375 2.984375q2.984375 2.984375 2.984375 8.765625l0 71.875q0 22.203125 -11.765625 33.40625q-11.75 11.203125 -34.15625 11.203125zm-0.5625 -55.4375q7.28125 0 12.5 -3.359375q5.234375 -3.359375 8.125 -9.609375q2.90625 -6.265625 2.90625 -14.84375q0 -12.875 -6.359375 -20.25q-6.34375 -7.375 -17.171875 -7.375q-7.28125 0 -12.515625 3.359375q-5.21875 3.359375 -8.109375 9.515625q-2.890625 6.15625 -2.890625 14.75q0 12.875 6.34375 20.34375q6.34375 7.46875 17.171875 7.46875z" fill-rule="nonzero"/><path fill="#444444" d="m260.12488 853.171q-6.75 0 -13.5 -1.0q-6.734375 -0.984375 -12.71875 -3.046875q-5.984375 -2.078125 -10.734375 -5.15625q-2.75 -1.828125 -3.828125 -4.4375q-1.078125 -2.609375 -0.703125 -5.140625q0.390625 -2.53125 2.0 -4.4375q1.609375 -1.921875 4.0625 -2.375q2.453125 -0.46875 5.375 1.375q6.75 3.984375 14.25 5.828125q7.515625 1.828125 15.796875 1.828125q12.109375 0 17.625 -4.0625q5.53125 -4.0625 5.53125 -10.5q0 -5.359375 -3.921875 -8.421875q-3.90625 -3.078125 -13.40625 -5.0625l-16.859375 -3.53125q-14.578125 -3.0625 -21.703125 -10.34375q-7.125 -7.296875 -7.125 -19.25q0 -7.515625 3.0625 -13.640625q3.0625 -6.140625 8.65625 -10.578125q5.609375 -4.453125 13.34375 -6.828125q7.75 -2.375 17.09375 -2.375q9.203125 0 17.484375 2.296875q8.28125 2.296875 14.875 6.75q2.453125 1.6875 3.296875 4.140625q0.84375 2.453125 0.375 4.828125q-0.453125 2.375 -2.140625 4.0625q-1.6875 1.6875 -4.21875 2.0q-2.53125 0.296875 -5.75 -1.546875q-5.671875 -3.21875 -11.5 -4.59375q-5.828125 -1.375 -12.5625 -1.375q-7.0625 0 -12.125 2.0q-5.0625 1.984375 -7.75 5.59375q-2.671875 3.59375 -2.671875 8.5q0 5.515625 3.671875 8.8125q3.6875 3.296875 12.578125 5.140625l16.71875 3.53125q15.171875 3.21875 22.609375 10.125q7.4375 6.890625 7.4375 18.390625q0 7.359375 -3.0 13.34375q-2.984375 5.96875 -8.578125 10.265625q-5.59375 4.296875 -13.421875 6.59375q-7.8125 2.296875 -17.625 2.296875zm91.2334 0q-9.96875 0 -16.640625 -3.375q-6.671875 -3.375 -9.890625 -9.890625q-3.21875 -6.515625 -3.21875 -16.171875l0 -32.65625l-7.96875 0q-3.6875 0 -5.6875 -1.90625q-1.984375 -1.921875 -1.984375 -5.296875q0 -3.53125 1.984375 -5.375q2.0 -1.84375 5.6875 -1.84375l7.96875 0l0 -13.953125q0 -4.75 2.53125 -7.203125q2.53125 -2.453125 7.125 -2.453125q4.609375 0 7.0625 2.453125q2.453125 2.453125 2.453125 7.203125l0 13.953125l16.25 0q3.6875 0 5.671875 1.84375q2.0 1.84375 2.0 5.375q0 3.375 -2.0 5.296875q-1.984375 1.90625 -5.671875 1.90625l-16.25 0l0 31.578125q0 7.359375 3.21875 11.046875q3.21875 3.671875 10.421875 3.671875q2.609375 0 4.59375 -0.453125q2.0 -0.453125 3.53125 -0.609375q1.84375 -0.15625 3.0625 1.15625q1.234375 1.296875 1.234375 5.28125q0 3.0625 -1.0 5.4375q-0.984375 2.375 -3.59375 3.296875q-2.0 0.609375 -5.21875 1.140625q-3.21875 0.546875 -5.671875 0.546875zm51.674927 0q-9.359375 0 -15.5 -3.4375q-6.125 -3.453125 -9.125 -10.359375q-2.984375 -6.90625 -2.984375 -17.171875l0 -37.109375q0 -4.90625 2.453125 -7.28125q2.453125 -2.375 7.0625 -2.375q4.59375 0 7.125 2.375q2.53125 2.375 2.53125 7.28125l0 37.421875q0 7.96875 3.21875 11.796875q3.21875 3.828125 10.28125 3.828125q7.65625 0 12.5625 -5.28125q4.90625 -5.296875 4.90625 -14.03125l0 -33.734375q0 -4.90625 2.453125 -7.28125q2.453125 -2.375 7.0625 -2.375q4.59375 0 7.125 2.375q2.53125 2.375 2.53125 7.28125l0 57.953125q0 9.828125 -9.359375 9.828125q-4.4375 0 -6.890625 -2.53125q-2.453125 -2.53125 -2.453125 -7.296875l0 -11.640625l2.140625 4.59375q-3.21875 8.28125 -9.734375 12.734375q-6.515625 4.4375 -15.40625 4.4375zm90.46451 0q-9.8125 0 -17.25 -4.75q-7.4375 -4.75 -11.578125 -13.5625q-4.140625 -8.828125 -4.140625 -20.78125q0 -12.109375 4.140625 -20.765625q4.140625 -8.671875 11.578125 -13.421875q7.4375 -4.765625 17.25 -4.765625q9.34375 0 16.3125 4.609375q6.9843445 4.59375 9.4374695 12.109375l-1.6875 0l0 -39.859375q0 -4.765625 2.453125 -7.21875q2.453125 -2.453125 7.0625 -2.453125q4.59375 0 7.125 2.453125q2.53125 2.453125 2.53125 7.21875l0 91.0625q0 4.765625 -2.453125 7.296875q-2.453125 2.53125 -7.046875 2.53125q-4.609375 0 -7.0625 -2.53125q-2.453125 -2.53125 -2.453125 -7.296875l0 -11.953125l1.6875 4.59375q-2.296875 7.984375 -9.3593445 12.734375q-7.046875 4.75 -16.546875 4.75zm5.359375 -14.5625q5.671875 0 9.96875 -2.75q4.2968445 -2.765625 6.6718445 -8.203125q2.375 -5.453125 2.375 -13.578125q0 -12.265625 -5.21875 -18.3125q-5.2030945 -6.0625 -13.7968445 -6.0625q-5.671875 0 -9.96875 2.6875q-4.28125 2.671875 -6.671875 8.125q-2.375 5.4375 -2.375 13.5625q0 12.109375 5.21875 18.328125q5.21875 6.203125 13.796875 6.203125zm67.30942 14.109375q-4.59375 0 -7.046875 -2.765625q-2.453125 -2.765625 -2.453125 -7.671875l0 -56.265625q0 -5.0625 2.453125 -7.734375q2.453125 -2.6875 7.046875 -2.6875q4.609375 0 7.125 2.6875q2.53125 2.671875 2.53125 7.734375l0 56.265625q0 4.90625 -2.453125 7.671875q-2.453125 2.765625 -7.203125 2.765625zm0 -91.390625q-5.359375 0 -8.359375 -2.671875q-2.984375 -2.6875 -2.984375 -7.453125q0 -4.90625 2.984375 -7.5q3.0 -2.609375 8.359375 -2.609375q5.53125 0 8.4375 2.609375q2.90625 2.59375 2.90625 7.5q0 4.765625 -2.90625 7.453125q-2.90625 2.671875 -8.4375 2.671875zm63.786194 91.84375q-11.65625 0 -20.25 -4.75q-8.578125 -4.75 -13.328125 -13.5625q-4.75 -8.828125 -4.75 -20.78125q0 -9.046875 2.671875 -16.171875q2.6875 -7.140625 7.75 -12.265625q5.0625 -5.140625 12.109375 -7.828125q7.0625 -2.6875 15.796875 -2.6875q11.65625 0 20.234375 4.765625q8.59375 4.75 13.34375 13.484375q4.75 8.734375 4.75 20.703125q0 9.046875 -2.6875 16.25q-2.671875 7.203125 -7.734375 12.34375q-5.0625 5.140625 -12.125 7.828125q-7.046875 2.671875 -15.78125 2.671875zm0 -14.5625q5.671875 0 9.96875 -2.75q4.296875 -2.765625 6.671875 -8.203125q2.375 -5.453125 2.375 -13.578125q0 -12.265625 -5.21875 -18.3125q-5.203125 -6.0625 -13.796875 -6.0625q-5.671875 0 -9.96875 2.6875q-4.28125 2.671875 -6.671875 8.125q-2.375 5.4375 -2.375 13.5625q0 12.109375 5.21875 18.328125q5.21875 6.203125 13.796875 6.203125zm81.56702 14.5625q-6.59375 0 -13.953125 -1.390625q-7.359375 -1.375 -13.1875 -4.734375q-2.453125 -1.546875 -3.453125 -3.609375q-0.984375 -2.0625 -0.765625 -4.125q0.234375 -2.078125 1.53125 -3.609375q1.3125 -1.546875 3.375 -2.0q2.078125 -0.46875 4.53125 0.765625q6.140625 2.90625 11.5 4.0625q5.375 1.15625 10.578125 1.15625q7.359375 0 10.953125 -2.53125q3.609375 -2.53125 3.609375 -6.671875q0 -3.53125 -2.375 -5.4375q-2.375 -1.921875 -7.125 -2.84375l-15.328125 -2.921875q-9.515625 -1.828125 -14.5 -6.96875q-4.984375 -5.140625 -4.984375 -13.265625q0 -7.359375 4.0625 -12.71875q4.078125 -5.375 11.28125 -8.28125q7.203125 -2.921875 16.5625 -2.921875q6.734375 0 12.640625 1.46875q5.90625 1.453125 11.421875 4.515625q2.296875 1.234375 3.140625 3.234375q0.84375 1.984375 0.375 4.0625q-0.453125 2.0625 -1.828125 3.671875q-1.375 1.609375 -3.453125 2.0q-2.0625 0.375 -4.671875 -0.859375q-4.75 -2.453125 -9.125 -3.515625q-4.359375 -1.078125 -8.359375 -1.078125q-7.5 0 -11.109375 2.609375q-3.609375 2.59375 -3.609375 6.890625q0 3.21875 2.140625 5.375q2.15625 2.140625 6.609375 2.90625l15.328125 2.921875q9.96875 1.828125 15.09375 6.734375q5.140625 4.90625 5.140625 13.1875q0 11.203125 -8.734375 17.5625q-8.734375 6.359375 -23.3125 6.359375z" fill-rule="nonzero"/><path fill="#000000" fill-opacity="0.0" d="m360.0 192.0l240.0 0l0 240.0l-240.0 0zm30.0 30.0l0 180.0l180.0 0l0 -180.0z" fill-rule="evenodd"/><path stroke="#0077a5" stroke-width="12.0" stroke-linejoin="round" stroke-linecap="butt" d="m360.0 192.0l240.0 0l0 240.0l-240.0 0zm30.0 30.0l0 180.0l180.0 0l0 -180.0z" fill-rule="evenodd"/><path fill="#000000" fill-opacity="0.0" d="m432.0 49.007874l0 142.99213" fill-rule="evenodd"/><path stroke="#0077a5" stroke-width="12.0" stroke-linejoin="round" stroke-linecap="butt" d="m432.0 94.48787l0 97.51213" fill-rule="evenodd"/><path stroke="#0077a5" stroke-width="12.0" stroke-linecap="butt" d="m432.0 55.007874c10.9021 0 19.73999 8.837898 19.73999 19.739998c0 10.9021 -8.837891 19.739998 -19.73999 19.739998c-10.9021 0 -19.73999 -8.837898 -19.73999 -19.739998c0 -10.9021 8.837891 -19.739998 19.73999 -19.739998z" fill-rule="nonzero"/><path fill="#000000" fill-opacity="0.0" d="m527.56696 96.56693l0.3149414 94.51968" fill-rule="evenodd"/><path stroke="#0077a5" stroke-width="12.0" stroke-linejoin="round" stroke-linecap="butt" d="m527.56696 96.56693l0.3149414 94.51968" fill-rule="evenodd"/><path fill="#000000" fill-opacity="0.0" d="m522.0079 102.44882l149.79529 -0.03150177" fill-rule="evenodd"/><path stroke="#0077a5" stroke-width="12.0" stroke-linejoin="round" stroke-linecap="butt" d="m522.0079 102.44882l104.31531 -0.02193451" fill-rule="evenodd"/><path stroke="#0077a5" stroke-width="12.0" stroke-linecap="butt" d="m665.80316 102.41859c0.0022583008 10.9021 -8.83374 19.741852 -19.73584 19.744148c-10.9021 0.0022888184 -19.741882 -8.833748 -19.74414 -19.735847c-0.002319336 -10.9021 8.83374 -19.74186 19.73584 -19.744148c10.9021 -0.0022964478 19.741821 8.833748 19.74414 19.735847z" fill-rule="nonzero"/><path fill="#000000" fill-opacity="0.0" d="m696.0 215.50131l-96.0 0.06298828" fill-rule="evenodd"/><path stroke="#0077a5" stroke-width="12.0" stroke-linejoin="round" stroke-linecap="butt" d="m650.52 215.53114l-50.52002 0.03315735" fill-rule="evenodd"/><path stroke="#0077a5" stroke-width="12.0" stroke-linecap="butt" d="m690.0 215.50525c0.0071411133 10.9021 -8.824951 19.745789 -19.72705 19.752945c-10.9021 0.007156372 -19.745789 -8.824936 -19.75293 -19.727036c-0.0071411133 -10.9021 8.824951 -19.745804 19.72705 -19.752945c10.9021 -0.007156372 19.745789 8.824936 19.75293 19.727036z" fill-rule="nonzero"/><path fill="#000000" fill-opacity="0.0" d="m696.0 311.9685l-96.0 0.06298828" fill-rule="evenodd"/><path stroke="#0077a5" stroke-width="12.0" stroke-linejoin="round" stroke-linecap="butt" d="m650.52 311.99835l-50.52002 0.03314209" fill-rule="evenodd"/><path stroke="#0077a5" stroke-width="12.0" stroke-linecap="butt" d="m690.0 311.97244c0.0071411133 10.9021 -8.824951 19.745789 -19.72705 19.75296c-10.9021 0.0071411133 -19.745789 -8.824951 -19.75293 -19.72705c-0.0071411133 -10.9021 8.824951 -19.745789 19.72705 -19.75296c10.9021 -0.0071411133 19.745789 8.824951 19.75293 19.72705z" fill-rule="nonzero"/><path fill="#000000" fill-opacity="0.0" d="m691.75854 365.6063l-94.519714 0.31497192" fill-rule="evenodd"/><path stroke="#0077a5" stroke-width="12.0" stroke-linejoin="round" stroke-linecap="butt" d="m691.75854 365.6063l-94.519714 0.31497192" fill-rule="evenodd"/><path fill="#000000" fill-opacity="0.0" d="m685.87665 360.04724l0.03149414 149.79529" fill-rule="evenodd"/><path stroke="#0077a5" stroke-width="12.0" stroke-linejoin="round" stroke-linecap="butt" d="m685.87665 360.04724l0.021911621 104.31528" fill-rule="evenodd"/><path stroke="#0077a5" stroke-width="12.0" stroke-linecap="butt" d="m685.90686 503.84253c-10.9021 0.0022888184 -19.741821 -8.833771 -19.74414 -19.73587c-0.0022583008 -10.9021 8.83374 -19.741852 19.73584 -19.74414c10.9021 -0.0022888184 19.741882 8.83374 19.74414 19.73584c0.002319336 10.9021 -8.83374 19.741882 -19.73584 19.744171z" fill-rule="nonzero"/><path fill="#000000" fill-opacity="0.0" d="m579.1706 531.67456l-0.06298828 -96.00003" fill-rule="evenodd"/><path stroke="#0077a5" stroke-width="12.0" stroke-linejoin="round" stroke-linecap="butt" d="m579.14075 486.19455l-0.03314209 -50.52002" fill-rule="evenodd"/><path stroke="#0077a5" stroke-width="12.0" stroke-linecap="butt" d="m579.1667 525.67456c-10.9021 0.0071411133 -19.745789 -8.824951 -19.75299 -19.72705c-0.0071411133 -10.9021 8.824951 -19.745789 19.72705 -19.75296c10.9021 -0.0071411133 19.745789 8.824951 19.75299 19.72705c0.0071411133 10.902069 -8.824951 19.745758 -19.72705 19.75296z" fill-rule="nonzero"/><path fill="#000000" fill-opacity="0.0" d="m482.7034 531.67456l-0.06298828 -96.00003" fill-rule="evenodd"/><path stroke="#0077a5" stroke-width="12.0" stroke-linejoin="round" stroke-linecap="butt" d="m482.67355 486.19455l-0.03314209 -50.52002" fill-rule="evenodd"/><path stroke="#0077a5" stroke-width="12.0" stroke-linecap="butt" d="m482.69946 525.67456c-10.9021 0.0071411133 -19.745789 -8.824951 -19.75293 -19.72705c-0.007171631 -10.9021 8.824951 -19.745789 19.72705 -19.75296c10.902069 -0.0071411133 19.745789 8.824951 19.75293 19.72705c0.007171631 10.902069 -8.824951 19.745758 -19.72705 19.75296z" fill-rule="nonzero"/><path fill="#000000" fill-opacity="0.0" d="m429.0656 527.43304l-0.3149414 -94.51965" fill-rule="evenodd"/><path stroke="#0077a5" stroke-width="12.0" stroke-linejoin="round" stroke-linecap="butt" d="m429.0656 527.43304l-0.3149414 -94.51965" fill-rule="evenodd"/><path fill="#000000" fill-opacity="0.0" d="m434.62466 521.5512l-149.79526 0.03149414" fill-rule="evenodd"/><path stroke="#0077a5" stroke-width="12.0" stroke-linejoin="round" stroke-linecap="butt" d="m434.62466 521.5512l-104.31528 0.021911621" fill-rule="evenodd"/><path stroke="#0077a5" stroke-width="12.0" stroke-linecap="butt" d="m290.8294 521.5814c-0.0022888184 -10.9021 8.83374 -19.741852 19.73584 -19.74414c10.9021 -0.002319336 19.741852 8.83374 19.74414 19.73584c0.0022888184 10.9021 -8.83374 19.741821 -19.73584 19.74414c-10.9021 0.002319336 -19.741852 -8.83374 -19.74414 -19.73584z" fill-rule="nonzero"/><path fill="#000000" fill-opacity="0.0" d="m264.0 408.20734l96.0 -0.06298828" fill-rule="evenodd"/><path stroke="#0077a5" stroke-width="12.0" stroke-linejoin="round" stroke-linecap="butt" d="m309.47998 408.1775l50.52002 -0.03314209" fill-rule="evenodd"/><path stroke="#0077a5" stroke-width="12.0" stroke-linecap="butt" d="m270.0 408.2034c-0.0071411133 -10.9021 8.824951 -19.745789 19.72705 -19.75293c10.9021 -0.007171631 19.745789 8.824951 19.75293 19.72705c0.007171631 10.902069 -8.824951 19.745789 -19.72702 19.75293c-10.9021 0.007171631 -19.74582 -8.824951 -19.75296 -19.72705z" fill-rule="nonzero"/><path fill="#000000" fill-opacity="0.0" d="m264.74014 234.40945l94.519714 -0.31497192" fill-rule="evenodd"/><path stroke="#0077a5" stroke-width="12.0" stroke-linejoin="round" stroke-linecap="butt" d="m264.74014 234.40945l94.519714 -0.31497192" fill-rule="evenodd"/><path fill="#000000" fill-opacity="0.0" d="m270.62204 239.9685l-0.03149414 -149.79529" fill-rule="evenodd"/><path stroke="#0077a5" stroke-width="12.0" stroke-linejoin="round" stroke-linecap="butt" d="m270.62204 239.9685l-0.021942139 -104.31528" fill-rule="evenodd"/><path stroke="#0077a5" stroke-width="12.0" stroke-linecap="butt" d="m270.59183 96.173225c10.9021 -0.0022888184 19.741852 8.833748 19.74414 19.735847c0.0022888184 10.902107 -8.83374 19.741867 -19.73584 19.744156c-10.9021 0.0022888184 -19.741867 -8.833748 -19.744156 -19.735855c-0.0023040771 -10.9021 8.8337555 -19.741852 19.735855 -19.744148z" fill-rule="nonzero"/></g></svg>