<svg version="1.1" viewBox="0.0 0.0 64.0 64.0" fill="none" stroke="none" stroke-linecap="square" stroke-miterlimit="10" xmlns:xlink="http://www.w3.org/1999/xlink" xmlns="http://www.w3.org/2000/svg"><clipPath id="p.0"><path d="m0 0l64.0 0l0 64.0l-64.0 0l0 -64.0z" clip-rule="nonzero"/></clipPath><g clip-path="url(#p.0)"><path fill="#000000" fill-opacity="0.0" d="m0 0l64.0 0l0 64.0l-64.0 0z" fill-rule="evenodd"/><path fill="#000000" fill-opacity="0.0" d="m17.606298 22.404295l0 0c0 -2.6498604 2.1481361 -4.7979965 4.7979965 -4.7979965l19.191408 0l0 0c1.2725105 0 2.492897 0.5055027 3.3926964 1.405302c0.89979935 0.89979744 1.4053001 2.1201878 1.4053001 3.3926945l0 19.191408c0 2.6498604 -2.1481361 4.7979965 -4.7979965 4.7979965l-19.191408 0c-2.6498604 0 -4.7979965 -2.1481361 -4.7979965 -4.7979965z" fill-rule="evenodd"/><path stroke="#0077a5" stroke-width="3.0" stroke-linejoin="round" stroke-linecap="butt" d="m17.606298 22.404295l0 0c0 -2.6498604 2.1481361 -4.7979965 4.7979965 -4.7979965l19.191408 0l0 0c1.2725105 0 2.492897 0.5055027 3.3926964 1.405302c0.89979935 0.89979744 1.4053001 2.1201878 1.4053001 3.3926945l0 19.191408c0 2.6498604 -2.1481361 4.7979965 -4.7979965 4.7979965l-19.191408 0c-2.6498604 0 -4.7979965 -2.1481361 -4.7979965 -4.7979965z" fill-rule="evenodd"/><path fill="#000000" fill-opacity="0.0" d="m46.39391 32.0l15.118111 0" fill-rule="evenodd"/><path stroke="#0077a5" stroke-width="2.0" stroke-linejoin="round" stroke-linecap="butt" d="m46.39391 32.0l7.538109 0" fill-rule="evenodd"/><path stroke="#0077a5" stroke-width="2.0" stroke-linecap="butt" d="m60.51202 32.0c0 1.8170166 -1.4729805 3.290001 -3.289997 3.290001c-1.8170166 0 -3.290001 -1.4729843 -3.290001 -3.290001c0 -1.8170166 1.4729843 -3.289999 3.290001 -3.289999c1.8170166 0 3.289997 1.4729824 3.289997 3.289999z" fill-rule="nonzero"/><path fill="#000000" fill-opacity="0.0" d="m32.00021 45.96063l0 15.118111" fill-rule="evenodd"/><path stroke="#0077a5" stroke-width="2.0" stroke-linejoin="round" stroke-linecap="butt" d="m32.00021 45.96063l0 7.538109" fill-rule="evenodd"/><path stroke="#0077a5" stroke-width="2.0" stroke-linecap="butt" d="m32.00021 60.07874c-1.8170166 0 -3.289999 -1.4729805 -3.289999 -3.289997c0 -1.8170166 1.4729824 -3.290001 3.289999 -3.290001c1.8170166 0 3.290001 1.4729843 3.290001 3.290001c0 1.8170166 -1.4729843 3.289997 -3.290001 3.289997z" fill-rule="nonzero"/><path fill="#000000" fill-opacity="0.0" d="m17.981836 32.0l-15.118109 0" fill-rule="evenodd"/><path stroke="#0077a5" stroke-width="2.0" stroke-linejoin="round" stroke-linecap="butt" d="m17.981838 32.0l-7.5381117 0" fill-rule="evenodd"/><path stroke="#0077a5" stroke-width="2.0" stroke-linecap="butt" d="m3.8637269 32.0c0 -1.8170166 1.4729831 -3.289999 3.2899997 -3.289999c1.8170166 0 3.29 1.4729824 3.29 3.289999c0 1.8170166 -1.4729834 3.290001 -3.29 3.290001c-1.8170166 0 -3.2899997 -1.4729843 -3.2899997 -3.290001z" fill-rule="nonzero"/><path fill="#000000" fill-opacity="0.0" d="m17.981436 45.960308l-10.708662 10.708664" fill-rule="evenodd"/><path stroke="#0077a5" stroke-width="2.0" stroke-linejoin="round" stroke-linecap="butt" d="m17.981436 45.960308l-5.348792 5.348793" fill-rule="evenodd"/><path stroke="#0077a5" stroke-width="2.0" stroke-linecap="butt" d="m7.979881 55.96186c-1.2848248 -1.2848244 -1.2848248 -3.3679352 0 -4.6527634c1.2848248 -1.2848244 3.3679376 -1.2848244 4.652763 0c1.2848244 1.2848282 1.2848244 3.367939 0 4.6527634c-1.2848253 1.2848244 -3.367938 1.2848244 -4.652763 0z" fill-rule="nonzero"/><path fill="#000000" fill-opacity="0.0" d="m46.01818 45.960308l10.70866 10.708664" fill-rule="evenodd"/><path stroke="#0077a5" stroke-width="2.0" stroke-linejoin="round" stroke-linecap="butt" d="m46.018185 45.960308l5.348793 5.348793" fill-rule="evenodd"/><path stroke="#0077a5" stroke-width="2.0" stroke-linecap="butt" d="m56.019737 55.96186c-1.2848244 1.2848244 -3.367939 1.2848244 -4.6527634 0c-1.2848244 -1.2848244 -1.2848244 -3.3679352 0 -4.6527596c1.2848244 -1.2848282 3.367939 -1.2848282 4.6527634 0c1.2848244 1.2848244 1.2848244 3.3679352 0 4.6527596z" fill-rule="nonzero"/><path fill="#000000" fill-opacity="0.0" d="m22.393911 16.698675l0 0c-0.02273941 -3.4394894 1.7951794 -6.628662 4.766321 -8.361555c2.9711418 -1.7328925 6.6420403 -1.7450266 9.624573 -0.031812668c2.9825325 1.7132139 4.821495 4.890299 4.821495 8.329863l-9.6063 0z" fill-rule="evenodd"/><path fill="#000000" fill-opacity="0.0" d="m22.393911 16.698675l0 0c-0.02273941 -3.4394894 1.7951794 -6.628662 4.766321 -8.361555c2.9711418 -1.7328925 6.6420403 -1.7450266 9.624573 -0.031812668c2.9825325 1.7132139 4.821495 4.890299 4.821495 8.329863" fill-rule="evenodd"/><path stroke="#0077a5" stroke-width="2.0" stroke-linejoin="round" stroke-linecap="butt" d="m22.393911 16.698675l0 0c-0.02273941 -3.4394894 1.7951794 -6.628662 4.766321 -8.361555c2.9711418 -1.7328925 6.6420403 -1.7450266 9.624573 -0.031812668c2.9825325 1.7132139 4.821495 4.890299 4.821495 8.329863" fill-rule="evenodd"/><path fill="#000000" fill-opacity="0.0" d="m22.393702 25.595865l0 0c0 -1.768507 1.4336567 -3.2021637 3.2021637 -3.2021637l12.808271 0l0 0c0.84926605 0 1.6637497 0.33736992 2.2642708 0.937891c0.6005211 0.600523 0.9378929 1.4150047 0.9378929 2.2642727l0 12.808271c0 1.7685051 -1.4336586 3.2021637 -3.2021637 3.2021637l-12.808271 0c-1.768507 0 -3.2021637 -1.4336586 -3.2021637 -3.2021637z" fill-rule="evenodd"/><path stroke="#0077a5" stroke-width="2.0" stroke-linejoin="round" stroke-linecap="butt" d="m22.393702 25.595865l0 0c0 -1.768507 1.4336567 -3.2021637 3.2021637 -3.2021637l12.808271 0l0 0c0.84926605 0 1.6637497 0.33736992 2.2642708 0.937891c0.6005211 0.600523 0.9378929 1.4150047 0.9378929 2.2642727l0 12.808271c0 1.7685051 -1.4336586 3.2021637 -3.2021637 3.2021637l-12.808271 0c-1.768507 0 -3.2021637 -1.4336586 -3.2021637 -3.2021637z" fill-rule="evenodd"/><path fill="#0077a5" d="m29.606298 30.204725l0 0c0 -1.3220062 1.0716972 -2.3937016 2.3937016 -2.3937016l0 0c0.63484955 0 1.2436943 0.25219345 1.6926003 0.7010994c0.44890594 0.44890594 0.7010994 1.0577526 0.7010994 1.6926022l0 0c0 1.3220043 -1.0716934 2.3937016 -2.3936996 2.3937016l0 0c-1.3220043 0 -2.3937016 -1.0716972 -2.3937016 -2.3937016z" fill-rule="evenodd"/><path stroke="#0077a5" stroke-width="1.0" stroke-linejoin="round" stroke-linecap="butt" d="m29.606298 30.204725l0 0c0 -1.3220062 1.0716972 -2.3937016 2.3937016 -2.3937016l0 0c0.63484955 0 1.2436943 0.25219345 1.6926003 0.7010994c0.44890594 0.44890594 0.7010994 1.0577526 0.7010994 1.6926022l0 0c0 1.3220043 -1.0716934 2.3937016 -2.3936996 2.3937016l0 0c-1.3220043 0 -2.3937016 -1.0716972 -2.3937016 -2.3937016z" fill-rule="evenodd"/><path fill="#0077a5" d="m31.526247 31.401575l0.94488335 0l0 4.787401l-0.94488335 0z" fill-rule="evenodd"/><path stroke="#0077a5" stroke-width="1.0" stroke-linejoin="round" stroke-linecap="butt" d="m31.526247 31.401575l0.94488335 0l0 4.787401l-0.94488335 0z" fill-rule="evenodd"/></g></svg>