<svg version="1.1" viewBox="0.0 0.0 960.0 960.0" fill="none" stroke="none" stroke-linecap="square" stroke-miterlimit="10" xmlns:xlink="http://www.w3.org/1999/xlink" xmlns="http://www.w3.org/2000/svg"><clipPath id="p.0"><path d="m0 0l960.0 0l0 960.0l-960.0 0l0 -960.0z" clip-rule="nonzero"/></clipPath><g clip-path="url(#p.0)"><path fill="#000000" fill-opacity="0.0" d="m0 0l960.0 0l0 960.0l-960.0 0z" fill-rule="evenodd"/><path fill="#000000" fill-opacity="0.0" d="m249.84764 281.72568l453.73224 0l0 441.73227l-453.73224 0zm55.216537 55.216522l0 331.2992l343.29922 0l0 -331.2992z" fill-rule="evenodd"/><path stroke="#0077a5" stroke-width="24.0" stroke-linejoin="round" stroke-linecap="butt" d="m249.84764 281.72568l453.73224 0l0 441.73227l-453.73224 0zm55.216537 55.216522l0 331.2992l343.29922 0l0 -331.2992z" fill-rule="evenodd"/><path fill="#000000" fill-opacity="0.0" d="m389.2581 18.532808l0 263.2441" fill-rule="evenodd"/><path stroke="#0077a5" stroke-width="24.0" stroke-linejoin="round" stroke-linecap="butt" d="m389.2581 109.492805l0 172.28412" fill-rule="evenodd"/><path stroke="#0077a5" stroke-width="24.0" stroke-linecap="butt" d="m389.2581 30.532808c21.8042 0 39.47998 17.675798 39.47998 39.480003c0 21.8042 -17.675781 39.479996 -39.47998 39.479996c-21.8042 0 -39.48001 -17.675797 -39.48001 -39.479996c0 -21.804203 17.675812 -39.480003 39.48001 -39.480003z" fill-rule="nonzero"/><path fill="#000000" fill-opacity="0.0" d="m569.9232 106.06458l0.56689453 173.95276" fill-rule="evenodd"/><path stroke="#0077a5" stroke-width="24.0" stroke-linejoin="round" stroke-linecap="butt" d="m569.9232 106.06458l0.56689453 173.95276" fill-rule="evenodd"/><path fill="#000000" fill-opacity="0.0" d="m557.90356 106.09695l283.21265 -0.03150177" fill-rule="evenodd"/><path stroke="#0077a5" stroke-width="24.0" stroke-linejoin="round" stroke-linecap="butt" d="m557.90356 106.09695l192.25269 -0.021377563" fill-rule="evenodd"/><path stroke="#0077a5" stroke-width="24.0" stroke-linecap="butt" d="m829.1162 106.06679c0.0024414062 21.8042 -17.671387 39.481964 -39.475586 39.48439c-21.8042 0.0024261475 -39.481995 -17.67141 -39.484375 -39.47561c-0.0024414062 -21.8042 17.671387 -39.481964 39.475586 -39.48439c21.8042 -0.0024261475 39.481934 17.67141 39.484375 39.47561z" fill-rule="nonzero"/><path fill="#000000" fill-opacity="0.0" d="m888.33856 324.96164l-181.51178 0.06298828" fill-rule="evenodd"/><path stroke="#0077a5" stroke-width="24.0" stroke-linejoin="round" stroke-linecap="butt" d="m797.3786 324.9932l-90.55182 0.031433105" fill-rule="evenodd"/><path stroke="#0077a5" stroke-width="24.0" stroke-linecap="butt" d="m876.33856 324.9658c0.0075683594 21.8042 -17.662048 39.486145 -39.466248 39.493713c-21.8042 0.0075683594 -39.486145 -17.66211 -39.493713 -39.46631c-0.0075683594 -21.8042 17.66211 -39.486115 39.46631 -39.493683c21.8042 -0.0075683594 39.486084 17.662079 39.493652 39.466278z" fill-rule="nonzero"/><path fill="#000000" fill-opacity="0.0" d="m888.33856 502.50815l-181.51178 0.06298828" fill-rule="evenodd"/><path stroke="#0077a5" stroke-width="24.0" stroke-linejoin="round" stroke-linecap="butt" d="m797.3786 502.53973l-90.55182 0.031433105" fill-rule="evenodd"/><path stroke="#0077a5" stroke-width="24.0" stroke-linecap="butt" d="m876.33856 502.51233c0.0075683594 21.8042 -17.662048 39.486145 -39.466248 39.493713c-21.8042 0.0075683594 -39.486145 -17.66211 -39.493713 -39.46631c-0.0075683594 -21.8042 17.66211 -39.486145 39.46631 -39.493713c21.8042 -0.0075683594 39.486084 17.66211 39.493652 39.46631z" fill-rule="nonzero"/><path fill="#000000" fill-opacity="0.0" d="m880.32025 601.2278l-178.70862 0.5354004" fill-rule="evenodd"/><path stroke="#0077a5" stroke-width="24.0" stroke-linejoin="round" stroke-linecap="butt" d="m880.32025 601.2278l-178.70862 0.5354004" fill-rule="evenodd"/><path fill="#000000" fill-opacity="0.0" d="m880.2899 589.26227l0.03149414 275.685" fill-rule="evenodd"/><path stroke="#0077a5" stroke-width="24.0" stroke-linejoin="round" stroke-linecap="butt" d="m880.2899 589.26227l0.021118164 184.72504" fill-rule="evenodd"/><path stroke="#0077a5" stroke-width="24.0" stroke-linecap="butt" d="m880.32007 852.94727c-21.8042 0.0025024414 -39.481995 -17.671265 -39.484497 -39.475464c-0.0025024414 -21.8042 17.671265 -39.482056 39.475464 -39.48456c21.8042 -0.0024414062 39.482056 17.671326 39.484497 39.475525c0.0025024414 21.8042 -17.671265 39.481995 -39.475464 39.484497z" fill-rule="nonzero"/><path fill="#000000" fill-opacity="0.0" d="m667.4777 906.874l-0.18902588 -176.62994" fill-rule="evenodd"/><path stroke="#0077a5" stroke-width="24.0" stroke-linejoin="round" stroke-linecap="butt" d="m667.3804 815.91406l-0.091674805 -85.66998" fill-rule="evenodd"/><path stroke="#0077a5" stroke-width="24.0" stroke-linecap="butt" d="m667.46484 894.874c-21.8042 0.02331543 -39.4989 -17.633545 -39.522217 -39.437744c-0.02331543 -21.8042 17.633545 -39.4989 39.437744 -39.522217c21.8042 -0.02331543 39.4989 17.633545 39.522217 39.437744c0.02331543 21.8042 -17.633545 39.4989 -39.437744 39.522217z" fill-rule="nonzero"/><path fill="#000000" fill-opacity="0.0" d="m485.1107 906.874l-0.18899536 -176.62994" fill-rule="evenodd"/><path stroke="#0077a5" stroke-width="24.0" stroke-linejoin="round" stroke-linecap="butt" d="m485.01337 815.91406l-0.09164429 -85.66998" fill-rule="evenodd"/><path stroke="#0077a5" stroke-width="24.0" stroke-linecap="butt" d="m485.09784 894.874c-21.804169 0.02331543 -39.49887 -17.633545 -39.522217 -39.437744c-0.02331543 -21.8042 17.633545 -39.4989 39.437744 -39.522217c21.8042 -0.02331543 39.4989 17.633545 39.522217 39.437744c0.02331543 21.8042 -17.633545 39.4989 -39.437744 39.522217z" fill-rule="nonzero"/><path fill="#000000" fill-opacity="0.0" d="m383.71075 899.0676l-0.56692505 -173.95276" fill-rule="evenodd"/><path stroke="#0077a5" stroke-width="24.0" stroke-linejoin="round" stroke-linecap="butt" d="m383.71075 899.0676l-0.56692505 -173.95276" fill-rule="evenodd"/><path fill="#000000" fill-opacity="0.0" d="m395.70224 899.0672l-283.2126 0.03149414" fill-rule="evenodd"/><path stroke="#0077a5" stroke-width="24.0" stroke-linejoin="round" stroke-linecap="butt" d="m395.70227 899.0672l-192.25261 0.021362305" fill-rule="evenodd"/><path stroke="#0077a5" stroke-width="24.0" stroke-linecap="butt" d="m124.489655 899.09735c-0.0024261475 -21.8042 17.671402 -39.481995 39.4756 -39.484375c21.804214 -0.0024414062 39.481964 17.671387 39.48439 39.475586c0.0024261475 21.8042 -17.671402 39.481934 -39.4756 39.484375c-21.8042 0.0024414062 -39.481964 -17.671387 -39.48439 -39.475586z" fill-rule="nonzero"/><path fill="#000000" fill-opacity="0.0" d="m71.661415 679.6344l181.51181 -0.06298828" fill-rule="evenodd"/><path stroke="#0077a5" stroke-width="24.0" stroke-linejoin="round" stroke-linecap="butt" d="m162.62141 679.6028l90.55182 -0.03137207" fill-rule="evenodd"/><path stroke="#0077a5" stroke-width="24.0" stroke-linecap="butt" d="m83.661415 679.63025c-0.0075683594 -21.8042 17.662094 -39.486145 39.466293 -39.493713c21.804207 -0.0075683594 39.486137 17.66211 39.493706 39.46631c0.0075683594 21.8042 -17.662094 39.486084 -39.4663 39.493652c-21.8042 0.0075683594 -39.48613 -17.662048 -39.4937 -39.466248z" fill-rule="nonzero"/><path fill="#000000" fill-opacity="0.0" d="m73.06065 359.7618l178.70866 -0.5354309" fill-rule="evenodd"/><path stroke="#0077a5" stroke-width="24.0" stroke-linejoin="round" stroke-linecap="butt" d="m73.06065 359.7618l178.70866 -0.5354309" fill-rule="evenodd"/><path fill="#000000" fill-opacity="0.0" d="m73.09309 371.7273l-0.03149414 -275.68503" fill-rule="evenodd"/><path stroke="#0077a5" stroke-width="24.0" stroke-linejoin="round" stroke-linecap="butt" d="m73.09309 371.7273l-0.021102905 -184.72504" fill-rule="evenodd"/><path stroke="#0077a5" stroke-width="24.0" stroke-linecap="butt" d="m73.062965 108.04226c21.8042 -0.0024871826 39.482018 17.671288 39.484505 39.475487c0.002494812 21.8042 -17.671288 39.482025 -39.475487 39.484512c-21.8042 0.0024871826 -39.482018 -17.671295 -39.48451 -39.475494c-0.0024909973 -21.804192 17.671288 -39.48201 39.47549 -39.484505z" fill-rule="nonzero"/></g></svg>